<svg width="24" height="24" viewBox="194 52 82 44" fill="none" xmlns="http://www.w3.org/2000/svg">
  <path d="M203.543 87.5062C199.695 84.4687 197.896 79.1957 197.896 73.5018C197.896 67.9558 199.328 63.3882 202.597 60.2312C205.866 57.0743 210.849 55.7148 217.139 55.7148C222.926 55.7148 227.476 57.1255 230.8 59.9468C234.118 62.7682 235.782 66.6191 235.782 71.4939V77.4494H211.427C212.032 79.2184 212.799 80.4983 214.685 81.289C216.571 82.0796 219.203 82.4721 222.57 82.4721C224.58 82.4721 226.633 82.3071 228.719 81.9715C229.454 81.8521 230.665 81.6644 231.302 81.5222V89.7871C228.119 90.6972 223.877 91.1523 219.095 91.1523C212.659 91.1466 207.39 90.5437 203.543 87.5062ZM222.326 70.1344C222.326 68.4507 220.484 64.8273 216.782 64.8273C213.442 64.8273 211.238 68.3938 211.238 70.1344H222.326Z" fill="currentColor"/>
  <path d="M245.838 73.1437L233.846 56.4317H247.745L272.273 90.4301H258.24L252.787 82.825L247.335 90.4301H233.365L245.838 73.1437Z" fill="currentColor"/>
  <path d="M257.931 56.4317H271.765L261.147 71.3178L254.122 61.7787L257.931 56.4317Z" fill="currentColor"/>
</svg>
